<svg width="1000" height="1441" viewBox="0 0 1000 1441" fill="none" xmlns="http://www.w3.org/2000/svg">
<line y1="1440.5" x2="1000" y2="1440.5" stroke="#DEDEDE"/>
<line y1="1380.5" x2="1000" y2="1380.5" stroke="#DEDEDE"/>
<line y1="1320.5" x2="1000" y2="1320.5" stroke="#DEDEDE"/>
<line y1="1260.5" x2="1000" y2="1260.5" stroke="#DEDEDE"/>
<line y1="1200.5" x2="1000" y2="1200.5" stroke="#DEDEDE"/>
<line y1="1140.5" x2="1000" y2="1140.5" stroke="#DEDEDE"/>
<line y1="1080.5" x2="1000" y2="1080.5" stroke="#DEDEDE"/>
<line y1="1020.5" x2="1000" y2="1020.5" stroke="#DEDEDE"/>
<line y1="960.5" x2="1000" y2="960.5" stroke="#DEDEDE"/>
<line y1="900.5" x2="1000" y2="900.5" stroke="#DEDEDE"/>
<line y1="840.5" x2="1000" y2="840.5" stroke="#DEDEDE"/>
<line y1="780.5" x2="1000" y2="780.5" stroke="#DEDEDE"/>
<line y1="720.5" x2="1000" y2="720.5" stroke="#DEDEDE"/>
<line y1="660.5" x2="1000" y2="660.5" stroke="#DEDEDE"/>
<line y1="600.5" x2="1000" y2="600.5" stroke="#DEDEDE"/>
<line y1="540.5" x2="1000" y2="540.5" stroke="#DEDEDE"/>
<line y1="480.5" x2="1000" y2="480.5" stroke="#DEDEDE"/>
<line y1="420.5" x2="1000" y2="420.5" stroke="#DEDEDE"/>
<line y1="360.5" x2="1000" y2="360.5" stroke="#DEDEDE"/>
<line y1="300.5" x2="1000" y2="300.5" stroke="#DEDEDE"/>
<line y1="240.5" x2="1000" y2="240.5" stroke="#DEDEDE"/>
<line y1="180.5" x2="1000" y2="180.5" stroke="#DEDEDE"/>
<line y1="120.5" x2="1000" y2="120.5" stroke="#DEDEDE"/>
<line y1="60.5" x2="1000" y2="60.5" stroke="#DEDEDE"/>
<line y1="0.5" x2="1000" y2="0.5" stroke="#DEDEDE"/>
</svg>
